<svg width="3000" height="749" viewBox="0 0 3000 749" fill="none" xmlns="http://www.w3.org/2000/svg">
<path fill-rule="evenodd" clip-rule="evenodd" d="M3000 0V489.137C3000 489.137 2931.5 542.221 2861.83 550.753C2792.15 559.284 2730.49 566.381 2704.75 633.915C2676.24 708.734 2237.09 732.757 2237.09 732.757C2237.09 732.757 1850.91 703.594 1576.92 635.816C1442.91 602.667 1300.38 678.021 1031.3 716.6C907.423 734.362 567.179 607.779 587.255 727.53C587.255 772.674 325.766 737.698 277.838 704.245C219.97 663.853 273.115 634.391 130.216 596.85C-12.6829 559.309 0.307446 526.58 0.307446 526.58V0H3000Z" fill="#FFDEC6"/>
</svg>
