<svg width="157" height="134" viewBox="0 0 157 134" fill="none" xmlns="http://www.w3.org/2000/svg">
<path d="M135.541 15.2132C117.259 5.84323 95.2551 41.2139 85.7186 36.3548C76.1821 31.4958 78.0851 18.4209 67.719 15.8163C54.2574 12.4338 58.576 24.112 51.3499 23.9742C39.4924 23.7481 48.9845 2.60379 31.6716 0.79235C11.6044 -1.30726 -1.05989 13.5557 0.809675 42.9681C2.32479 66.8042 33.1077 71.4559 44.489 92.7453C51.2617 105.414 43.1437 111.127 53.5755 121.136C67.6157 134.607 86.6366 138.293 102.865 128.168C117.71 118.907 108.713 100.759 118.815 86.6041C129.319 71.8855 150.585 74.7206 154.704 57.0951C158.762 39.7285 159.597 27.5423 135.541 15.2132Z" fill="#F5C2B8"/>
</svg>
