<svg width="1731" height="579" viewBox="0 0 1731 579" fill="none" xmlns="http://www.w3.org/2000/svg">
<path d="M906.5 19.4664C823.022 -46.0288 674.637 77.0839 523 93.7604C320.174 116.066 0.5 93.7604 0.5 93.7604V522.226C0.5 522.226 319.172 512.732 523 522.226C626.128 527.03 763.241 534.54 786.712 540.741C820.909 549.775 829.451 557.533 861.57 572.237C896.685 588.313 926.418 569.977 960.705 552.239C990.248 536.956 1008.52 560.024 1035.56 540.741C1073.37 513.782 1200.4 542.527 1306 540.741C1472.11 537.93 1731 522.226 1731 522.226V19.4664H1324.5C1168.49 19.4664 974.898 73.13 906.5 19.4664Z" fill="#D0E0E7"/>
</svg>
