<svg width="3000" height="530" viewBox="0 0 3000 530" fill="none" xmlns="http://www.w3.org/2000/svg">
<path d="M3000 530H0V15.0129C0 15.0129 339.5 20.3034 452.5 102.293C565.5 184.283 843.551 29.6685 1039.02 20.3034C1090.76 17.8245 1120.14 25.6201 1171.66 20.3034C1203.9 16.9769 1221.29 -9.31333 1251.05 3.49131C1258.42 6.66239 1267.85 11.8669 1270.14 20.3034C1272.08 27.4514 1262.06 25.2646 1266.12 38.591C1270.18 51.9175 1290.87 56.3015 1310.79 41.4652C1318.99 35.3562 1339.04 25.1663 1348.63 20.3034C1375.5 6.67697 1396.49 0.911174 1422.91 15.0129C1443.11 25.792 1457.05 7.59399 1475.11 20.3034C1497.1 35.7743 1494.43 28.3538 1522.68 20.3034C1551.45 12.1053 1572.35 35.2377 1595.73 20.3034C1614.09 8.5772 1693.92 44.9799 1757.5 57.6654C1823.82 70.8972 1996 16.5369 2091 40.115C2474 167.48 3000 20.3034 3000 20.3034V530Z" fill="#6E8E9D"/>
</svg>
