<svg width="1325" height="530" viewBox="0 0 1325 530" fill="none" xmlns="http://www.w3.org/2000/svg">
<path d="M1324.5 530H248H0V20.3034H248C248 20.3034 328.724 25.6201 380 20.3034C412.081 16.9769 429.383 -9.31333 459 3.49131C466.335 6.66239 475.722 11.8669 478 20.3034C479.93 27.4514 469.961 25.2646 474 38.591C478.039 51.9175 498.626 56.3015 518.453 41.4652C526.617 35.3562 546.565 25.1663 556.108 20.3034C582.849 6.67697 603.74 0.911175 630.036 15.0129C650.136 25.792 664.011 7.59399 681.985 20.3034C703.864 35.7743 701.209 28.3538 729.323 20.3034C757.953 12.1053 778.754 35.2377 802.022 20.3034C820.291 8.5772 1083.5 17.083 1083.5 17.083L1324.5 15.0131V530Z" fill="#6E8E9D"/>
</svg>
