<svg width="3000" height="750" viewBox="0 0 3000 750" fill="none" xmlns="http://www.w3.org/2000/svg">
<path fill-rule="evenodd" clip-rule="evenodd" d="M3000 0V294.372C3000 294.372 2911.18 485.795 2694.26 519.481C2538.28 543.703 2392.06 414.558 2290.27 519.481C2267.99 542.447 2132.63 542.945 2105.2 551.488C2077.77 560.031 2053.5 567.138 2043.37 634.762C2032.14 709.68 1859.26 733.735 1859.26 733.735C1859.26 733.735 1707.22 704.533 1599.36 636.665C1546.6 603.472 1490.49 678.926 1384.56 717.557C1335.79 735.342 1201.84 608.591 1209.75 728.501C1209.75 773.705 1106.8 738.683 1087.93 705.185C1065.15 664.739 1086.07 635.238 1029.82 597.647C973.561 560.056 1002.83 550.478 978.675 527.283C896.718 448.571 809.476 598.038 677.806 636.665C546.135 675.293 461.475 577.831 302.244 551.488C181.318 531.482 0 444.264 0 444.264V0H3000Z" fill="#FFDEC6"/>
</svg>
